PathFileType	4	(X/Y/Z)	Patient4_TMGait_0pt4_03_left_40.trc.trc
DataRate	CameraRate	NumFrames	NumMarkers	Units	OrigDataRate	OrigDataStartFrame	OrigNumFrames
74.866310160428	74.866310160428	4	33	mm	74.866310160428	106	       141
Frame#	Time	Sacral			L.Shoulder			Chest			R.Shoulder			Neck			R.ASIS			L.ASIS			R.Thigh.Superior			R.Thigh.Lateral			R.Thigh.Inferior			R.Patella			L.Thigh.Superior			L.Thigh.Lateral			L.Thigh.Inferior			L.Patella			L.Shank.Superior			L.Shank.Lateral			L.Shank.Inferior			R.Shank.Superior			R.Shank.Lateral			R.Shank.Inferior			R.Heel			R.Midfoot.Superior			R.Midfoot.Lateral			R.Toe			L.Heel			L.Midfoot.Lateral			L.Midfoot.Superior			L.Toe			L.Elbow			L.Wrist			R.Elbow			R.Wrist			
		X1	Y1	Z1	X2	Y2	Z2	X3	Y3	Z3	X4	Y4	Z4	X5	Y5	Z5	X6	Y6	Z6	X7	Y7	Z7	X8	Y8	Z8	X9	Y9	Z9	X10	Y10	Z10	X11	Y11	Z11	X12	Y12	Z12	X13	Y13	Z13	X14	Y14	Z14	X15	Y15	Z15	X16	Y16	Z16	X17	Y17	Z17	X18	Y18	Z18	X19	Y19	Z19	X20	Y20	Z20	X21	Y21	Z21	X22	Y22	Z22	X23	Y23	Z23	X24	Y24	Z24	X25	Y25	Z25	X26	Y26	Z26	X27	Y27	Z27	X28	Y28	Z28	X29	Y29	Z29	X30	Y30	Z30	X31	Y31	Z31	X32	Y32	Z32	X33	Y33	Z33	

106	54.372500000000	960.794165974295	1009.089864128234	539.183655780007	1129.338984814442	1426.964472007997	331.348431883281	1245.240575811922	1364.632947799083	485.682703790300	1178.634395620800	1444.530635214806	664.059161739172	1128.770114511987	1496.564360824857	486.220561642825	1197.466654641974	943.281894989074	639.029454784843	1162.470855076216	962.505949542161	367.176367285445	1224.421819218319	737.347249388904	608.922456871256	1136.950174518087	632.228584059029	671.448564128251	1207.350522464334	575.154331768585	590.007581440698	1200.743274439957	485.528024147575	595.319870474207	1249.243253258096	785.757777494245	387.961262338891	1204.025440842808	658.788237703597	308.053625818492	1314.683390281067	601.421399979231	359.955887075471	1332.599117928792	516.312182376140	349.777543492534	1276.802895846913	445.198140644263	341.154169355584	1142.883200862741	378.542689932520	301.682482886364	1163.404293277989	246.242384896228	345.526066040524	1163.266013486041	400.113773369399	601.601612628057	1083.794963929946	303.959394436207	664.853627091014	1111.660893168628	205.581863550744	599.457599096052	962.022614415403	48.778037940101	574.112206937531	1134.741445964167	97.488179391263	606.525259013152	1046.589705041203	39.403404294903	646.612641915103	1254.515302336161	40.096271386592	632.352305582800	997.640223241467	141.624064368228	395.664094952279	1052.983408864768	114.110909337959	306.462968868730	1156.125136604625	141.563192249095	319.515721117759	1249.151259496706	50.036822747029	273.142068797983	1064.204121238336	1073.742859917455	233.684451527605	1113.336398692253	819.809427384222	203.004116669889	1218.604199990353	1110.218929372746	809.093875013093	1461.747868377700	1057.723833059582	756.243714044613	
107	54.385857142857	959.916955419601	1010.259676551218	540.718506119168	1127.685193233874	1427.696457085674	332.029452661105	1245.332203637628	1364.731802866167	484.772247188691	1181.353742975235	1444.873172113887	663.976404968850	1129.169623214085	1497.095064021254	486.763227680556	1197.203262418770	943.290273645549	638.233023675070	1159.953739196108	963.344668032585	366.724963459287	1222.091295609009	737.036528289375	607.770717809549	1134.548210682218	632.444415192810	671.250546412256	1203.843581617387	574.924706079873	589.334231202506	1196.715437558915	485.430355735503	594.887025143603	1246.937116246732	787.575114727091	387.485652137704	1202.595736614282	660.257206218561	307.701960118191	1313.317788030592	603.655825857675	360.175408304091	1332.813923092721	519.978089851757	349.575575958902	1280.534618558051	447.955250174776	340.501872197027	1150.848006440930	373.664211218542	301.166219979666	1179.864210770806	242.306257975103	344.041979875936	1159.054924284905	400.219529283394	601.473577590171	1079.459445980998	304.328681631592	664.993655461666	1106.832573277085	205.842202793037	599.584125368666	956.667333831167	49.365557847288	574.378778564415	1129.574271434229	97.536777626222	606.661332642172	1041.313789242228	39.646319551275	646.822458778526	1249.163772028644	39.971641432869	632.438420245951	1021.500456741131	126.340552741078	394.690506473259	1077.906354776837	103.690040512969	304.729656977696	1179.130098786801	137.831410056000	317.263105027128	1277.921592307080	53.510803237805	269.250738762785	1056.532288820725	1075.611085775963	234.693442752046	1102.979001760950	821.289123929889	203.158573025487	1229.507798727624	1111.715063458825	807.632359278299	1473.916351824676	1076.098378560248	750.147342671380	
108	54.399214285714	959.075535614313	1011.370247636237	542.042351107722	1126.119245141873	1428.385245727761	332.538643931138	1245.437864538395	1364.749743689110	483.697492590792	1184.023863908700	1445.087775997947	663.688543524307	1129.568410383757	1497.541830782191	487.137356581258	1196.874797481480	943.216021471822	637.231278073763	1157.477673259657	964.077696517867	366.076810548747	1219.656126688293	736.664300988785	606.445155221017	1132.107313096803	632.610908898265	670.975136710908	1200.246793822216	574.650153839842	588.561860894290	1192.576082751081	485.309952899082	594.404271926876	1244.331491253895	788.929719530738	387.043658554359	1200.916599929287	661.400397248591	307.238190764922	1311.329985955162	605.323517270862	360.720080279108	1332.414062955634	523.252714642655	349.679080929350	1283.740857294304	450.484576610812	340.091858644379	1159.031106206855	368.703000414699	300.132734268131	1196.198648867107	238.788829135197	342.481022032657	1154.765406601717	400.280707791965	601.301118608635	1075.059367152374	304.648969969413	665.090360427365	1101.970977691545	206.055809695592	599.676742141461	951.302223657576	49.885741841595	574.645854073540	1124.384193175983	97.570313894899	606.777926539245	1036.022096497625	39.857067415786	647.031407051877	1243.802341654800	39.868728809360	632.519103520299	1045.568872808516	112.070655124991	392.703379866745	1103.343969557989	94.089808245258	302.511482516946	1202.163632858915	134.710810257288	315.168542350828	1306.483761647826	57.653202826989	266.513321707978	1049.196059755609	1077.434108172443	235.797711860926	1093.108571647030	822.737376055591	203.527320555155	1240.358670079435	1113.253354513500	805.730601423767	1484.793749733579	1094.044095662922	743.690028197374	
109	54.412571428571	958.282213646079	1012.369073928835	543.145810457199	1124.651846541430	1428.989088823073	332.856197199488	1245.543416680839	1364.656797691422	482.465431748199	1186.593770026890	1445.147496974635	663.193293421549	1129.957744705850	1497.871005989653	487.325931579011	1196.484059665990	943.038707496652	636.043178922901	1155.074986201653	964.671150897775	365.236054995929	1217.164875447156	736.205694652881	605.008359143001	1129.628876723392	632.698842430868	670.624480721989	1196.585354698766	574.301622930535	587.712368674190	1188.343844269818	485.139022845833	593.867417226674	1241.499550788368	789.839074352884	386.668756173136	1199.096994606516	662.243542957576	306.640625464198	1308.866484710790	606.468932295468	361.514779067090	1331.540617813569	526.141008189700	350.048716353471	1286.477879818145	452.786861259632	339.926157598508	1167.383710694156	363.879114810415	298.574088959593	1212.103883569831	235.863995559517	340.916221395201	1150.403783061259	400.268525230839	601.070572413100	1070.599252634459	304.891885841070	665.128646806274	1097.075216988869	206.195015800046	599.720920393382	945.927532135387	50.301532516208	574.903461406807	1119.160434170304	97.585737202750	606.871984414642	1030.709333025165	40.019152028261	647.230769660530	1238.430473375925	39.793096569752	632.592776512490	1069.293344092600	99.250466985817	389.758262250101	1128.794605667817	85.625586514108	299.912613233167	1224.785174925754	132.369800626413	313.351184954837	1334.309380787146	62.436633090505	265.169768505820	1042.263570055292	1079.145426525858	236.975546072523	1083.723791486124	824.077217788945	204.094205442087	1251.101822937142	1114.816500954496	803.422362367562	1494.445742689163	1111.362465934169	736.951191945350	
